<svg width="110" height="88" viewBox="0 0 110 88" fill="none" xmlns="http://www.w3.org/2000/svg">
<path d="M37.084 9.03459C40.0959 4.23288 51.715 -3.70575 68.9124 4.65975C86.1098 13.0253 90 23.7595 90 31.2287C89.5908 36.9906 86.1416 41.3655 78.8382 46.0604C62.9912 55.9838 29.6774 66.5582 20.5275 41.5471C17.404 33.0109 29.0916 22.1591 31.0207 18.9579C32.9499 15.7568 34.7413 12.1289 37.084 9.03459Z" fill="#FAF2E9" stroke="#FBF6F0" stroke-width="2" stroke-linecap="round" stroke-linejoin="round"/>
<path d="M34 24.9482C36.2193 25.0994 39.3733 24.9766 42.5651 24.2613M54.5799 12.4352C53.6283 11.9585 53.3903 10.7271 53.3903 10.171C53.311 8.78066 53.4379 6 54.5799 6C55.7219 6 55.0558 11.7997 54.5799 14.6995C53.0477 20.3672 47.7564 23.0979 42.5651 24.2613M54.5799 12.4352C55.7695 13.0311 56.7212 13.8653 57.197 14.4611C57.5539 14.8187 58.7435 16.7254 59.3383 18.513C59.9331 20.3005 60.6468 22.9223 60.7658 24.4715C61.083 28.6425 61.5985 39.4155 61.1227 49.1399H47.4424C46.3321 39.3679 45.4201 19.085 50.6543 16.1295M54.5799 12.4352C62.0981 13.2933 65.3259 20.3402 66 23.7565L65.4052 48.6632L60.8848 52L46.8476 51.7617L42.5651 49.1399V24.2613M54.5799 12.4352C51.7249 12.3745 45.3249 14.6547 42.5651 24.2613M59.4572 23.8756C59.3779 24.3523 58.91 25.4249 57.6729 25.9016C56.1264 26.4974 55.0558 26.1399 54.1041 26.8549C53.1524 27.5699 52.5576 28.7617 52.9145 29.3575C53.2714 29.9534 54.223 29.9534 54.6989 29.2383C55.0796 28.6663 54.7782 26.5371 54.5799 25.544C54.3817 24.5907 53.4855 22.3026 52.9145 21.7306C52.7162 22.8031 52.2245 25.1389 51.8439 25.9016C51.368 26.8549 50.7732 30.3109 52.6766 30.5492C54.5799 30.7876 55.6506 31.7409 55.7695 32.9326C55.8647 33.886 55.8092 42.3869 55.7695 46.5181C55.1747 46.9551 53.3903 47.5668 51.0112 46.5181L51.2491 34.2435V33.2902C51.6853 32.8135 52.9383 32.0984 54.461 33.0518" stroke="#BE6C31" stroke-linecap="round" stroke-linejoin="round"/>
<path d="M2.65636 84H0.792728L4.98023 72.3636H7.00864L11.1961 84H9.3325L6.04273 74.4773H5.95182L2.65636 84ZM2.96886 79.4432H9.01432V80.9205H2.96886V79.4432ZM15.9466 84.1705C15.242 84.1705 14.6133 83.9905 14.0602 83.6307C13.511 83.267 13.0792 82.75 12.7648 82.0795C12.4542 81.4053 12.2989 80.5966 12.2989 79.6534C12.2989 78.7102 12.4561 77.9034 12.7705 77.233C13.0886 76.5625 13.5242 76.0492 14.0773 75.6932C14.6303 75.3371 15.2572 75.1591 15.958 75.1591C16.4996 75.1591 16.9352 75.25 17.2648 75.4318C17.5981 75.6098 17.8557 75.8182 18.0375 76.0568C18.2231 76.2955 18.367 76.5057 18.4693 76.6875H18.5716V72.3636H20.2705V84H18.6114V82.642H18.4693C18.367 82.8277 18.2193 83.0398 18.0261 83.2784C17.8367 83.517 17.5754 83.7254 17.242 83.9034C16.9087 84.0814 16.4769 84.1705 15.9466 84.1705ZM16.3216 82.7216C16.8102 82.7216 17.2231 82.5928 17.5602 82.3352C17.9011 82.0739 18.1587 81.7121 18.333 81.25C18.511 80.7879 18.6 80.25 18.6 79.6364C18.6 79.0303 18.5129 78.5 18.3386 78.0455C18.1644 77.5909 17.9087 77.2367 17.5716 76.983C17.2345 76.7292 16.8178 76.6023 16.3216 76.6023C15.8102 76.6023 15.3841 76.7348 15.0432 77C14.7023 77.2652 14.4447 77.6269 14.2705 78.0852C14.1 78.5436 14.0148 79.0606 14.0148 79.6364C14.0148 80.2197 14.1019 80.7443 14.2761 81.2102C14.4504 81.6761 14.708 82.0455 15.0489 82.3182C15.3936 82.5871 15.8178 82.7216 16.3216 82.7216ZM22.7752 84V75.2727H24.4059V76.6932H24.5138C24.6956 76.2121 24.993 75.8371 25.4059 75.5682C25.8187 75.2955 26.313 75.1591 26.8888 75.1591C27.4721 75.1591 27.9608 75.2955 28.3547 75.5682C28.7524 75.8409 29.046 76.2159 29.2354 76.6932H29.3263C29.5346 76.2273 29.8661 75.8561 30.3206 75.5795C30.7752 75.2992 31.3168 75.1591 31.9456 75.1591C32.7373 75.1591 33.3831 75.4072 33.8831 75.9034C34.3869 76.3996 34.6388 77.1477 34.6388 78.1477V84H32.9399V78.3068C32.9399 77.7159 32.779 77.2879 32.457 77.0227C32.135 76.7576 31.7505 76.625 31.3036 76.625C30.7505 76.625 30.3206 76.7955 30.0138 77.1364C29.707 77.4735 29.5536 77.9072 29.5536 78.4375V84H27.8604V78.1989C27.8604 77.7254 27.7127 77.3447 27.4172 77.0568C27.1218 76.7689 26.7373 76.625 26.2638 76.625C25.9418 76.625 25.6445 76.7102 25.3718 76.8807C25.1028 77.0473 24.885 77.2803 24.7184 77.5795C24.5555 77.8788 24.474 78.2254 24.474 78.6193V84H22.7752ZM36.9958 84V75.2727H38.6947V84H36.9958ZM37.8538 73.9261C37.5583 73.9261 37.3045 73.8277 37.0924 73.6307C36.8841 73.4299 36.7799 73.1913 36.7799 72.9148C36.7799 72.6345 36.8841 72.3958 37.0924 72.1989C37.3045 71.9981 37.5583 71.8977 37.8538 71.8977C38.1492 71.8977 38.4011 71.9981 38.6094 72.1989C38.8216 72.3958 38.9276 72.6345 38.9276 72.9148C38.9276 73.1913 38.8216 73.4299 38.6094 73.6307C38.4011 73.8277 38.1492 73.9261 37.8538 73.9261ZM42.759 78.8182V84H41.0602V75.2727H42.6909V76.6932H42.7988C42.9996 76.2311 43.314 75.8598 43.742 75.5795C44.1738 75.2992 44.7174 75.1591 45.3727 75.1591C45.9674 75.1591 46.4882 75.2841 46.9352 75.5341C47.3821 75.7803 47.7287 76.1477 47.9749 76.6364C48.2212 77.125 48.3443 77.7292 48.3443 78.4489V84H46.6454V78.6534C46.6454 78.0208 46.4806 77.5265 46.1511 77.1705C45.8215 76.8106 45.3689 76.6307 44.7931 76.6307C44.3992 76.6307 44.0488 76.7159 43.742 76.8864C43.439 77.0568 43.1984 77.3068 43.0204 77.6364C42.8462 77.9621 42.759 78.3561 42.759 78.8182ZM50.7027 84V75.2727H52.4015V84H50.7027ZM51.5606 73.9261C51.2652 73.9261 51.0114 73.8277 50.7993 73.6307C50.5909 73.4299 50.4868 73.1913 50.4868 72.9148C50.4868 72.6345 50.5909 72.3958 50.7993 72.1989C51.0114 71.9981 51.2652 71.8977 51.5606 71.8977C51.8561 71.8977 52.108 71.9981 52.3163 72.1989C52.5284 72.3958 52.6345 72.6345 52.6345 72.9148C52.6345 73.1913 52.5284 73.4299 52.3163 73.6307C52.108 73.8277 51.8561 73.9261 51.5606 73.9261ZM61.3068 77.4034L59.767 77.6761C59.7027 77.4792 59.6004 77.2917 59.4602 77.1136C59.3239 76.9356 59.1383 76.7898 58.9034 76.6761C58.6686 76.5625 58.375 76.5057 58.0227 76.5057C57.5417 76.5057 57.1402 76.6136 56.8182 76.8295C56.4962 77.0417 56.3352 77.3163 56.3352 77.6534C56.3352 77.9451 56.4432 78.1799 56.6591 78.358C56.875 78.536 57.2235 78.6818 57.7045 78.7955L59.0909 79.1136C59.8939 79.2992 60.4924 79.5852 60.8864 79.9716C61.2803 80.358 61.4773 80.8598 61.4773 81.4773C61.4773 82 61.3258 82.4659 61.0227 82.875C60.7235 83.2803 60.3049 83.5985 59.767 83.8295C59.233 84.0606 58.6136 84.1761 57.9091 84.1761C56.9318 84.1761 56.1345 83.9678 55.517 83.5511C54.8996 83.1307 54.5208 82.5341 54.3807 81.7614L56.0227 81.5114C56.125 81.9394 56.3352 82.2633 56.6534 82.483C56.9716 82.6989 57.3864 82.8068 57.8977 82.8068C58.4545 82.8068 58.8996 82.6913 59.233 82.4602C59.5663 82.2254 59.733 81.9394 59.733 81.6023C59.733 81.3295 59.6307 81.1004 59.4261 80.9148C59.2254 80.7292 58.9167 80.589 58.5 80.4943L57.0227 80.1705C56.2083 79.9848 55.6061 79.6894 55.2159 79.2841C54.8295 78.8788 54.6364 78.3655 54.6364 77.7443C54.6364 77.2292 54.7803 76.7784 55.0682 76.392C55.3561 76.0057 55.7538 75.7045 56.2614 75.4886C56.7689 75.2689 57.3504 75.1591 58.0057 75.1591C58.9489 75.1591 59.6913 75.3636 60.233 75.7727C60.7746 76.178 61.1326 76.7216 61.3068 77.4034ZM67.499 75.2727V76.6364H62.732V75.2727H67.499ZM64.0104 73.1818H65.7093V81.4375C65.7093 81.767 65.7585 82.0152 65.857 82.1818C65.9555 82.3447 66.0824 82.4564 66.2377 82.517C66.3968 82.5739 66.5691 82.6023 66.7547 82.6023C66.8911 82.6023 67.0104 82.5928 67.1127 82.5739C67.2149 82.5549 67.2945 82.5398 67.3513 82.5284L67.6581 83.9318C67.5596 83.9697 67.4195 84.0076 67.2377 84.0455C67.0559 84.0871 66.8286 84.1098 66.5559 84.1136C66.1089 84.1212 65.6922 84.0417 65.3059 83.875C64.9195 83.7083 64.607 83.4508 64.3684 83.1023C64.1297 82.7538 64.0104 82.3163 64.0104 81.7898V73.1818ZM69.4583 84V75.2727H71.1003V76.6591H71.1913C71.3503 76.1894 71.6306 75.8201 72.0322 75.5511C72.4375 75.2784 72.8958 75.142 73.4072 75.142C73.5132 75.142 73.6382 75.1458 73.7822 75.1534C73.9299 75.161 74.0454 75.1705 74.1288 75.1818V76.8068C74.0606 76.7879 73.9394 76.767 73.7651 76.7443C73.5909 76.7178 73.4166 76.7045 73.2424 76.7045C72.8409 76.7045 72.4829 76.7898 72.1685 76.9602C71.8579 77.1269 71.6117 77.3598 71.4299 77.6591C71.2481 77.9545 71.1572 78.2917 71.1572 78.6705V84H69.4583ZM78.1406 84.1932C77.5875 84.1932 77.0875 84.0909 76.6406 83.8864C76.1936 83.678 75.8394 83.3769 75.5781 82.983C75.3205 82.589 75.1917 82.1061 75.1917 81.5341C75.1917 81.0417 75.2864 80.6364 75.4758 80.3182C75.6652 80 75.9209 79.7481 76.2428 79.5625C76.5648 79.3769 76.9247 79.2367 77.3224 79.142C77.7201 79.0473 78.1254 78.9754 78.5383 78.9261C79.061 78.8655 79.4853 78.8163 79.811 78.7784C80.1368 78.7367 80.3735 78.6705 80.5213 78.5795C80.669 78.4886 80.7428 78.3409 80.7428 78.1364V78.0966C80.7428 77.6004 80.6027 77.2159 80.3224 76.9432C80.0459 76.6705 79.633 76.5341 79.0838 76.5341C78.5118 76.5341 78.061 76.661 77.7315 76.9148C77.4057 77.1648 77.1803 77.4432 77.0553 77.75L75.4588 77.3864C75.6481 76.8561 75.9247 76.428 76.2883 76.1023C76.6557 75.7727 77.0781 75.5341 77.5553 75.3864C78.0326 75.2348 78.5345 75.1591 79.061 75.1591C79.4095 75.1591 79.7788 75.2008 80.169 75.2841C80.5629 75.3636 80.9303 75.5114 81.2713 75.7273C81.616 75.9432 81.8981 76.2519 82.1178 76.6534C82.3375 77.0511 82.4474 77.5682 82.4474 78.2045V84H80.7883V82.8068H80.7201C80.6103 83.0265 80.4455 83.2424 80.2258 83.4545C80.0061 83.6667 79.7239 83.8428 79.3792 83.983C79.0345 84.1231 78.6216 84.1932 78.1406 84.1932ZM78.5099 82.8295C78.9796 82.8295 79.3811 82.7367 79.7144 82.5511C80.0516 82.3655 80.3072 82.1231 80.4815 81.8239C80.6595 81.5208 80.7485 81.197 80.7485 80.8523V79.7273C80.6879 79.7879 80.5705 79.8447 80.3963 79.8977C80.2258 79.947 80.0307 79.9905 79.811 80.0284C79.5913 80.0625 79.3773 80.0947 79.169 80.125C78.9606 80.1515 78.7864 80.1742 78.6463 80.1932C78.3167 80.2348 78.0156 80.3049 77.7428 80.4034C77.4739 80.5019 77.258 80.6439 77.0951 80.8295C76.936 81.0114 76.8565 81.2538 76.8565 81.5568C76.8565 81.9773 77.0118 82.2955 77.3224 82.5114C77.633 82.7235 78.0288 82.8295 78.5099 82.8295ZM88.0572 84.1705C87.3527 84.1705 86.7239 83.9905 86.1709 83.6307C85.6216 83.267 85.1898 82.75 84.8754 82.0795C84.5648 81.4053 84.4095 80.5966 84.4095 79.6534C84.4095 78.7102 84.5667 77.9034 84.8811 77.233C85.1993 76.5625 85.6349 76.0492 86.1879 75.6932C86.7409 75.3371 87.3678 75.1591 88.0686 75.1591C88.6103 75.1591 89.0459 75.25 89.3754 75.4318C89.7087 75.6098 89.9663 75.8182 90.1481 76.0568C90.3337 76.2955 90.4777 76.5057 90.58 76.6875H90.6822V72.3636H92.3811V84H90.722V82.642H90.58C90.4777 82.8277 90.33 83.0398 90.1368 83.2784C89.9474 83.517 89.686 83.7254 89.3527 83.9034C89.0193 84.0814 88.5875 84.1705 88.0572 84.1705ZM88.4322 82.7216C88.9209 82.7216 89.3337 82.5928 89.6709 82.3352C90.0118 82.0739 90.2693 81.7121 90.4436 81.25C90.6216 80.7879 90.7106 80.25 90.7106 79.6364C90.7106 79.0303 90.6235 78.5 90.4493 78.0455C90.275 77.5909 90.0193 77.2367 89.6822 76.983C89.3451 76.7292 88.9284 76.6023 88.4322 76.6023C87.9209 76.6023 87.4947 76.7348 87.1538 77C86.8129 77.2652 86.5553 77.6269 86.3811 78.0852C86.2106 78.5436 86.1254 79.0606 86.1254 79.6364C86.1254 80.2197 86.2125 80.7443 86.3868 81.2102C86.561 81.6761 86.8186 82.0455 87.1595 82.3182C87.5042 82.5871 87.9284 82.7216 88.4322 82.7216ZM98.5619 84.1761C97.7437 84.1761 97.0297 83.9886 96.4199 83.6136C95.81 83.2386 95.3365 82.714 94.9994 82.0398C94.6623 81.3655 94.4937 80.5777 94.4937 79.6761C94.4937 78.7708 94.6623 77.9792 94.9994 77.3011C95.3365 76.6231 95.81 76.0966 96.4199 75.7216C97.0297 75.3466 97.7437 75.1591 98.5619 75.1591C99.3801 75.1591 100.094 75.3466 100.704 75.7216C101.314 76.0966 101.787 76.6231 102.124 77.3011C102.462 77.9792 102.63 78.7708 102.63 79.6761C102.63 80.5777 102.462 81.3655 102.124 82.0398C101.787 82.714 101.314 83.2386 100.704 83.6136C100.094 83.9886 99.3801 84.1761 98.5619 84.1761ZM98.5676 82.75C99.0979 82.75 99.5373 82.6098 99.8858 82.3295C100.234 82.0492 100.492 81.6761 100.659 81.2102C100.829 80.7443 100.914 80.2311 100.914 79.6705C100.914 79.1136 100.829 78.6023 100.659 78.1364C100.492 77.6667 100.234 77.2898 99.8858 77.0057C99.5373 76.7216 99.0979 76.5795 98.5676 76.5795C98.0335 76.5795 97.5903 76.7216 97.2381 77.0057C96.8896 77.2898 96.6301 77.6667 96.4597 78.1364C96.293 78.6023 96.2097 79.1136 96.2097 79.6705C96.2097 80.2311 96.293 80.7443 96.4597 81.2102C96.6301 81.6761 96.8896 82.0492 97.2381 82.3295C97.5903 82.6098 98.0335 82.75 98.5676 82.75ZM104.606 84V75.2727H106.248V76.6591H106.339C106.498 76.1894 106.779 75.8201 107.18 75.5511C107.586 75.2784 108.044 75.142 108.555 75.142C108.661 75.142 108.786 75.1458 108.93 75.1534C109.078 75.161 109.194 75.1705 109.277 75.1818V76.8068C109.209 76.7879 109.087 76.767 108.913 76.7443C108.739 76.7178 108.565 76.7045 108.391 76.7045C107.989 76.7045 107.631 76.7898 107.317 76.9602C107.006 77.1269 106.76 77.3598 106.578 77.6591C106.396 77.9545 106.305 78.2917 106.305 78.6705V84H104.606Z" fill="#1E1E1E"/>
</svg>
