<svg width="118" height="48" viewBox="0 0 118 48" fill="none" xmlns="http://www.w3.org/2000/svg">
<g filter="url(#filter0_d_88_6569)">
<path d="M22.6075 6.3903C24.8303 3.1689 33.4049 -2.15702 46.0961 3.45528C58.7874 9.06758 61.6582 16.269 61.6582 21.28C61.3563 25.1456 58.8108 28.0806 53.4211 31.2304C41.7264 37.8878 17.1417 44.9821 10.3893 28.2025C8.0842 22.4756 16.7094 15.1953 18.133 13.0477C19.5567 10.9001 20.8787 8.46621 22.6075 6.3903Z" fill="#FAF2E9" stroke="#FBF6F0" stroke-width="2" stroke-linecap="round" stroke-linejoin="round"/>
<path d="M19.3926 17.0666C20.8815 17.168 22.9974 17.0856 25.1388 16.6057M33.1994 8.6718C32.5609 8.352 32.4013 7.52585 32.4013 7.15275C32.3481 6.22 32.4332 4.35449 33.1994 4.35449C33.9655 4.35449 33.5186 8.2454 33.1994 10.1909C32.1714 13.9932 28.6215 15.8252 25.1388 16.6057M33.1994 8.6718C33.9974 9.07155 34.6359 9.6312 34.9551 10.031C35.1946 10.2708 35.9926 11.55 36.3917 12.7493C36.7907 13.9485 37.2696 15.7074 37.3494 16.7468C37.5622 19.545 37.908 26.7725 37.5888 33.2964H28.4109C27.666 26.7405 27.0541 13.133 30.5657 11.1503M33.1994 8.6718C38.2432 9.24744 40.4087 13.9752 40.8609 16.2671L40.4619 32.9766L37.4292 35.2153L28.0118 35.0554L25.1388 33.2964V16.6057M33.1994 8.6718C31.284 8.63107 26.9903 10.1608 25.1388 16.6057M36.4715 16.347C36.4183 16.6668 36.1044 17.3864 35.2744 17.7062C34.2369 18.1059 33.5186 17.8661 32.8801 18.3458C32.2417 18.8255 31.8426 19.625 32.0821 20.0247C32.3215 20.4245 32.9599 20.4245 33.2792 19.9448C33.5346 19.561 33.3324 18.1326 33.1994 17.4663C33.0664 16.8267 32.4651 15.2917 32.0821 14.9079C31.949 15.6275 31.6192 17.1945 31.3638 17.7062C31.0445 18.3458 30.6455 20.6643 31.9224 20.8242C33.1994 20.9841 33.9176 21.6237 33.9974 22.4232C34.0613 23.0628 34.024 28.7659 33.9974 31.5375C33.5984 31.8307 32.4013 32.2411 30.8051 31.5375L30.9647 23.3027V22.6631C31.2574 22.3433 32.098 21.8636 33.1196 22.5032" stroke="#BE6C31" stroke-linecap="round" stroke-linejoin="round"/>
<path d="M53.1934 16.124V17.8423H48.52V21.9014H53.1934V23.6196H48.52V29.4053H46.8018V16.124H53.1934ZM55.5694 29.4053V16.124H57.2876V27.6787H62.0357V29.4053H55.5694ZM69.7242 22.9888L68.587 19.876L67.4581 22.9888H69.7242ZM69.0518 16.124L73.8829 29.4053H72.0567L70.3468 24.707H66.8272L65.1256 29.4053H63.2911L68.1221 16.124H69.0518ZM77.6036 16.124L81.9117 23.5698L86.2032 16.124H87.7721V29.4053H86.0538V19.8096L81.9117 26.9814L77.753 19.8096V29.4053H76.0348V16.124H77.6036ZM92.7296 16.124L97.0378 23.5698L101.329 16.124H102.898V29.4053H101.18V19.8096L97.0378 26.9814L92.8791 19.8096V29.4053H91.1608V16.124H92.7296ZM113.035 16.124V17.8423H107.598V21.9014H113.035V23.6196H107.598V27.6787H113.035V29.4053H105.88V16.124H113.035Z" fill="#BE6C31"/>
<path d="M12.8671 5.67903C13.1946 4.52816 14.4282 2.18112 16.7425 2C16.3604 3.16974 15.0504 5.54319 12.8671 5.67903Z" fill="#E19F48"/>
<path d="M10.3563 2.90561C10.6292 4.11309 11.1423 7.06343 10.5746 8.96521C10.4614 9.16044 10.3522 9.35548 10.2471 9.55029C8.50043 6.33538 9.55571 3.71688 10.3563 2.90561Z" fill="#E19F48"/>
<path d="M5.0071 18.8104C6.1861 18.6292 7.76599 20.848 8.36529 21.98C8.43577 22.3041 8.5148 22.625 8.60186 22.9422C5.6762 22.0819 4.91613 19.7914 5.0071 18.8104Z" fill="#E19F48"/>
<path d="M13.3038 31.3996C12.9763 30.5992 12.3649 28.7494 12.5396 27.7532C13.2128 27.9608 14.388 29.1909 14.0824 32.2247C13.8192 31.9597 13.5592 31.6845 13.3038 31.3996Z" fill="#E19F48"/>
<path d="M11.2296 33.0171C12.7143 32.3832 14.9194 33.2246 15.7018 33.6963C15.939 33.89 16.177 34.0752 16.415 34.2517C13.4457 34.9762 11.6117 33.7152 11.2296 33.0171Z" fill="#E19F48"/>
<path d="M7.57252 10.3203C8.27678 10.8558 8.29694 13.754 8.27874 14.9615C8.23841 15.1687 8.20208 15.3753 8.16967 15.5812C5.71761 13.3734 6.75413 9.69795 7.57252 10.3203Z" fill="#E19F48"/>
<path d="M7.96046 18.2444C8.30615 17.1501 9.37376 14.6446 10.4654 14.5087C10.5564 15.5275 10.13 17.95 7.99032 19.2632C7.97046 18.9262 7.96033 18.5865 7.96046 18.2444Z" fill="#E19F48"/>
<path d="M16.415 31.7719C18.2053 32.8133 18.6089 34.8008 18.5725 35.6121C18.2207 35.4296 17.8636 35.2245 17.5041 34.9981C16.6286 34.0925 16.4133 32.4699 16.415 31.7719Z" fill="#E19F48"/>
<path d="M11.487 29.0859C10.5591 29.2934 8.33668 29.1003 7.24502 26.5646C7.9546 26.5458 9.77299 26.8476 10.7773 27.9796C11.0044 28.3581 11.2414 28.727 11.487 29.0859Z" fill="#E19F48"/>
<path d="M9.48991 11.103C9.97176 10.439 11.5878 8.96521 13.4129 8.96521C13.1946 9.90744 11.9267 11.754 9.13208 11.9804C9.2428 11.6887 9.36199 11.3962 9.48991 11.103Z" fill="#E19F48"/>
<path d="M9.15543 24.527C9.06446 23.3384 9.23185 20.9272 10.1925 20.3386C10.6656 21.6404 11.2951 24.5157 9.81043 25.8288L9.69981 25.942C9.52089 25.5533 9.35321 25.1569 9.19801 24.7534L9.15543 24.527Z" fill="#E19F48"/>
<path d="M21 36.5263C19.9348 36.2969 18.7344 35.7729 17.5041 34.9981M12.8671 5.67903C13.1946 4.52816 14.4282 2.18112 16.7425 2C16.3604 3.16974 15.0504 5.54319 12.8671 5.67903ZM12.8671 5.67903C11.377 7.4969 10.2708 9.31304 9.48991 11.103M9.48293 11.1127C9.48523 11.1095 9.48755 11.1063 9.48991 11.103M8.17293 15.5841C8.17185 15.5831 8.17076 15.5822 8.16967 15.5812M13.3038 31.3996C12.9763 30.5992 12.3649 28.7494 12.5396 27.7532C13.2128 27.9608 14.388 29.1909 14.0824 32.2247C13.8192 31.9597 13.5592 31.6845 13.3038 31.3996ZM13.3038 31.3996C14.6366 32.886 16.0901 34.1077 17.5041 34.9981M13.3038 31.3996C11.9094 29.8447 10.647 28.0001 9.69981 25.942M17.5041 34.9981C16.6286 34.0925 16.4133 32.4699 16.415 31.7719C18.2053 32.8133 18.6089 34.8008 18.5725 35.6121C18.2207 35.4296 17.8636 35.2245 17.5041 34.9981ZM8.16967 15.5812C8.20208 15.3753 8.23841 15.1687 8.27874 14.9615C8.29694 13.754 8.27678 10.8558 7.57252 10.3203C6.75413 9.69795 5.71761 13.3734 8.16967 15.5812ZM8.16967 15.5812C8.40014 14.1171 8.82832 12.6195 9.48991 11.103M8.16967 15.5812C7.65297 18.8634 8.12993 21.9766 9.19801 24.7534M9.48991 11.103C9.97176 10.439 11.5878 8.96521 13.4129 8.96521C13.1946 9.90744 11.9267 11.754 9.13208 11.9804C9.2428 11.6887 9.36199 11.3962 9.48991 11.103ZM9.19801 24.7534L9.15543 24.527C9.06446 23.3384 9.23185 20.9272 10.1925 20.3386C10.6656 21.6404 11.2951 24.5157 9.81043 25.8288L9.69981 25.942M9.19801 24.7534C9.35321 25.1569 9.52089 25.5533 9.69981 25.942M10.3563 2.90561C10.6292 4.11309 11.1423 7.06343 10.5746 8.96521C10.4614 9.16044 10.3522 9.35548 10.2471 9.55029C8.50043 6.33538 9.55571 3.71688 10.3563 2.90561ZM7.96046 18.2443C8.30615 17.1501 9.37377 14.6446 10.4654 14.5087C10.5564 15.5275 10.13 17.95 7.99032 19.2632C7.97045 18.9262 7.96033 18.5865 7.96046 18.2443ZM8.36529 21.98C7.76599 20.848 6.1861 18.6292 5.0071 18.8104C4.91613 19.7914 5.6762 22.0819 8.60186 22.9422C8.5148 22.625 8.43577 22.3041 8.36529 21.98ZM11.487 29.0859C10.5591 29.2934 8.33668 29.1003 7.24502 26.5646C7.9546 26.5458 9.77299 26.8476 10.7773 27.9796C11.0044 28.3581 11.2414 28.727 11.487 29.0859ZM15.7018 33.6963C14.9194 33.2246 12.7143 32.3832 11.2296 33.0171C11.6117 33.7152 13.4457 34.9762 16.415 34.2517C16.177 34.0752 15.939 33.89 15.7018 33.6963Z" stroke="#E19F48" stroke-linejoin="round"/>
</g>
<defs>
<filter id="filter0_d_88_6569" x="0.5" y="0.000976562" width="116.535" height="47.5684" filterUnits="userSpaceOnUse" color-interpolation-filters="sRGB">
<feFlood flood-opacity="0" result="BackgroundImageFix"/>
<feColorMatrix in="SourceAlpha" type="matrix" values="0 0 0 0 0 0 0 0 0 0 0 0 0 0 0 0 0 0 127 0" result="hardAlpha"/>
<feOffset dy="4"/>
<feGaussianBlur stdDeviation="2"/>
<feComposite in2="hardAlpha" operator="out"/>
<feColorMatrix type="matrix" values="0 0 0 0 0 0 0 0 0 0 0 0 0 0 0 0 0 0 0.25 0"/>
<feBlend mode="normal" in2="BackgroundImageFix" result="effect1_dropShadow_88_6569"/>
<feBlend mode="normal" in="SourceGraphic" in2="effect1_dropShadow_88_6569" result="shape"/>
</filter>
</defs>
</svg>
