<svg width="185" height="131" viewBox="0 0 185 131" fill="none" xmlns="http://www.w3.org/2000/svg">
<path d="M67.423 18.5253C72.4285 8.05167 91.7382 -9.26435 120.318 8.98278C148.899 27.2299 155.364 50.6438 155.364 66.9359C154.684 79.5038 148.952 89.0465 136.814 99.2873C110.478 120.932 55.1141 143.998 39.9079 89.4427C34.7169 70.8232 54.1405 47.153 57.3465 40.1705C60.5526 33.188 63.5298 25.2747 67.423 18.5253Z" fill="#FAF2E9" stroke="#FBF6F0" stroke-width="2" stroke-linecap="round" stroke-linejoin="round"/>
<path d="M60.8857 75.2637V76.0986H55.2266V82.2681H60.8857V83.103H55.2266V90.1074H54.3916V75.2637H60.8857ZM64.9663 90.1074V75.2637H65.8013V89.2725H71.5532V90.1074H64.9663ZM82.165 83.5854L79.9013 77.3604L77.6377 83.5854H82.165ZM82.4712 84.4204H77.3315L75.2627 90.1074H74.372L79.9013 74.9204L85.4213 90.1074H84.54L82.4712 84.4204ZM89.7617 75.2637L95.3373 84.9121L100.904 75.2637H101.859L101.822 75.3286V90.1074H100.987V76.7759L95.3373 86.5542L89.6782 76.7759V90.1074H88.8432V75.3286L88.8061 75.2637H89.7617ZM107.127 75.2637L112.703 84.9121L118.269 75.2637H119.225L119.188 75.3286V90.1074H118.353V76.7759L112.703 86.5542L107.044 76.7759V90.1074H106.209V75.3286L106.172 75.2637H107.127ZM130.959 75.2637V76.0986H124.372V82.2681H130.959V83.103H124.372V89.2725H130.959V90.1074H123.537V75.2637H130.959Z" fill="#C87200"/>
<path d="M59.2261 98.9515H59.6461L58.0861 104.867H57.9301H57.6781H57.5221L55.9621 98.9515H56.3701L57.7981 104.387L59.2261 98.9515ZM63.3919 101.579C63.3199 101.603 63.1999 101.651 63.0319 101.723C62.8639 101.787 62.6799 101.855 62.4799 101.927C62.2879 101.999 62.0999 102.071 61.9159 102.143C61.7319 102.215 61.5879 102.267 61.4839 102.299V103.319C61.4839 103.487 61.5159 103.647 61.5799 103.799C61.6439 103.943 61.7279 104.071 61.8319 104.183C61.9439 104.287 62.0719 104.371 62.2159 104.435C62.3679 104.499 62.5279 104.531 62.6959 104.531C62.8639 104.531 63.0199 104.499 63.1639 104.435C63.3159 104.371 63.4439 104.287 63.5479 104.183C63.6599 104.071 63.7479 103.943 63.8119 103.799C63.8759 103.647 63.9079 103.487 63.9079 103.319H64.3039C64.3039 103.543 64.2599 103.755 64.1719 103.955C64.0919 104.147 63.9799 104.315 63.8359 104.459C63.6919 104.603 63.5199 104.719 63.3199 104.807C63.1279 104.887 62.9199 104.927 62.6959 104.927C62.4719 104.927 62.2599 104.887 62.0599 104.807C61.8679 104.719 61.6999 104.603 61.5559 104.459C61.4119 104.315 61.2959 104.147 61.2079 103.955C61.1279 103.755 61.0879 103.543 61.0879 103.319V100.499C61.0879 100.275 61.1279 100.067 61.2079 99.8755C61.2959 99.6755 61.4119 99.5035 61.5559 99.3595C61.6999 99.2155 61.8679 99.1035 62.0599 99.0235C62.2599 98.9355 62.4719 98.8915 62.6959 98.8915C62.9199 98.8915 63.1279 98.9355 63.3199 99.0235C63.5199 99.1035 63.6919 99.2155 63.8359 99.3595C63.9799 99.5035 64.0919 99.6755 64.1719 99.8755C64.2599 100.067 64.3039 100.271 64.3039 100.487V100.499C64.3039 100.995 63.9999 101.355 63.3919 101.579ZM62.6959 99.2875C62.5279 99.2875 62.3679 99.3195 62.2159 99.3835C62.0719 99.4475 61.9439 99.5355 61.8319 99.6475C61.7279 99.7515 61.6439 99.8795 61.5799 100.031C61.5159 100.175 61.4839 100.331 61.4839 100.499V101.879C61.6039 101.831 61.7519 101.775 61.9279 101.711C62.1039 101.639 62.2799 101.571 62.4559 101.507C62.6319 101.443 62.7919 101.383 62.9359 101.327C63.0879 101.271 63.1959 101.231 63.2599 101.207C63.4039 101.151 63.5479 101.067 63.6919 100.955C63.8359 100.843 63.9079 100.687 63.9079 100.487C63.9079 100.319 63.8759 100.163 63.8119 100.019C63.7479 99.8755 63.6599 99.7515 63.5479 99.6475C63.4439 99.5355 63.3159 99.4475 63.1639 99.3835C63.0199 99.3195 62.8639 99.2875 62.6959 99.2875ZM66.44 104.867H66.044V96.2635H66.44V104.867ZM70.0087 98.8915C70.2327 98.8915 70.4367 98.9355 70.6207 99.0235C70.8047 99.1035 70.9607 99.2155 71.0887 99.3595C71.2247 99.5035 71.3287 99.6755 71.4007 99.8755C71.4807 100.067 71.5207 100.275 71.5207 100.499V101.903V103.319V104.867H71.1247V104.375C70.9727 104.543 70.7927 104.679 70.5847 104.783C70.3767 104.879 70.1527 104.927 69.9127 104.927C69.6887 104.927 69.4767 104.887 69.2767 104.807C69.0847 104.719 68.9167 104.603 68.7727 104.459C68.6287 104.315 68.5127 104.147 68.4247 103.955C68.3447 103.755 68.3047 103.543 68.3047 103.319V102.983C68.3047 102.487 68.6087 102.127 69.2167 101.903C69.2887 101.871 69.4087 101.823 69.5767 101.759C69.7527 101.695 69.9367 101.627 70.1287 101.555C70.3287 101.475 70.5207 101.403 70.7047 101.339C70.8887 101.267 71.0287 101.211 71.1247 101.171V100.499C71.1247 100.163 71.0207 99.8795 70.8127 99.6475C70.6127 99.4075 70.3447 99.2875 70.0087 99.2875C69.8407 99.2875 69.6847 99.3195 69.5407 99.3835C69.3967 99.4475 69.2687 99.5355 69.1567 99.6475C69.0447 99.7515 68.9567 99.8795 68.8927 100.031C68.8287 100.175 68.7967 100.331 68.7967 100.499H68.4007C68.4007 100.275 68.4407 100.067 68.5207 99.8755C68.6087 99.6755 68.7247 99.5035 68.8687 99.3595C69.0127 99.2155 69.1807 99.1035 69.3727 99.0235C69.5727 98.9355 69.7847 98.8915 70.0087 98.8915ZM71.1247 101.903V101.603C71.0047 101.651 70.8567 101.707 70.6807 101.771C70.5047 101.835 70.3287 101.903 70.1527 101.975C69.9767 102.039 69.8167 102.099 69.6727 102.155C69.5287 102.211 69.4247 102.251 69.3607 102.275C69.2087 102.331 69.0607 102.415 68.9167 102.527C68.7727 102.639 68.7007 102.791 68.7007 102.983V103.319C68.7007 103.487 68.7327 103.647 68.7967 103.799C68.8607 103.943 68.9447 104.071 69.0487 104.183C69.1607 104.287 69.2887 104.371 69.4327 104.435C69.5847 104.499 69.7447 104.531 69.9127 104.531C70.0807 104.531 70.2367 104.499 70.3807 104.435C70.5327 104.371 70.6607 104.287 70.7647 104.183C70.8767 104.071 70.9647 103.943 71.0287 103.799C71.0927 103.647 71.1247 103.487 71.1247 103.319V101.903ZM75.0234 101.723C75.1994 101.811 75.3754 101.907 75.5514 102.011C75.7354 102.107 75.8994 102.219 76.0434 102.347C76.1874 102.475 76.3034 102.619 76.3914 102.779C76.4874 102.931 76.5354 103.111 76.5354 103.319C76.5354 103.543 76.4914 103.755 76.4034 103.955C76.3234 104.147 76.2114 104.315 76.0674 104.459C75.9234 104.603 75.7514 104.719 75.5514 104.807C75.3594 104.887 75.1514 104.927 74.9274 104.927C74.7034 104.927 74.4914 104.887 74.2914 104.807C74.0994 104.719 73.9314 104.603 73.7874 104.459C73.6434 104.315 73.5274 104.147 73.4394 103.955C73.3594 103.755 73.3194 103.543 73.3194 103.319H73.7154C73.7154 103.487 73.7474 103.647 73.8114 103.799C73.8754 103.943 73.9594 104.071 74.0634 104.183C74.1754 104.287 74.3034 104.371 74.4474 104.435C74.5994 104.499 74.7594 104.531 74.9274 104.531C75.0954 104.531 75.2514 104.499 75.3954 104.435C75.5474 104.371 75.6754 104.287 75.7794 104.183C75.8914 104.071 75.9794 103.943 76.0434 103.799C76.1074 103.647 76.1394 103.487 76.1394 103.319C76.1394 103.175 76.1034 103.047 76.0314 102.935C75.9594 102.815 75.8634 102.707 75.7434 102.611C75.6234 102.515 75.4834 102.427 75.3234 102.347C75.1714 102.259 75.0114 102.171 74.8434 102.083C74.6594 101.995 74.4754 101.903 74.2914 101.807C74.1154 101.703 73.9554 101.591 73.8114 101.471C73.6674 101.343 73.5474 101.203 73.4514 101.051C73.3634 100.891 73.3194 100.707 73.3194 100.499C73.3194 100.275 73.3594 100.067 73.4394 99.8755C73.5274 99.6755 73.6434 99.5035 73.7874 99.3595C73.9314 99.2155 74.0994 99.1035 74.2914 99.0235C74.4914 98.9355 74.7034 98.8915 74.9274 98.8915C75.1514 98.8915 75.3594 98.9355 75.5514 99.0235C75.7514 99.1035 75.9234 99.2155 76.0674 99.3595C76.2114 99.5035 76.3234 99.6755 76.4034 99.8755C76.4914 100.067 76.5354 100.275 76.5354 100.499H76.1394C76.1394 100.331 76.1074 100.175 76.0434 100.031C75.9794 99.8795 75.8914 99.7515 75.7794 99.6475C75.6754 99.5355 75.5474 99.4475 75.3954 99.3835C75.2514 99.3195 75.0954 99.2875 74.9274 99.2875C74.7594 99.2875 74.5994 99.3195 74.4474 99.3835C74.3034 99.4475 74.1754 99.5355 74.0634 99.6475C73.9594 99.7515 73.8754 99.8795 73.8114 100.031C73.7474 100.175 73.7154 100.331 73.7154 100.499C73.7154 100.643 73.7514 100.775 73.8234 100.895C73.8954 101.007 73.9914 101.111 74.1114 101.207C74.2394 101.303 74.3794 101.395 74.5314 101.483C74.6914 101.563 74.8554 101.643 75.0234 101.723ZM82.8614 98.8915C83.0854 98.8915 83.2894 98.9355 83.4734 99.0235C83.6574 99.1035 83.8134 99.2155 83.9414 99.3595C84.0774 99.5035 84.1814 99.6755 84.2534 99.8755C84.3334 100.067 84.3734 100.275 84.3734 100.499V101.903V103.319V104.867H83.9774V104.375C83.8254 104.543 83.6454 104.679 83.4374 104.783C83.2294 104.879 83.0054 104.927 82.7654 104.927C82.5414 104.927 82.3294 104.887 82.1294 104.807C81.9374 104.719 81.7694 104.603 81.6254 104.459C81.4814 104.315 81.3654 104.147 81.2774 103.955C81.1974 103.755 81.1574 103.543 81.1574 103.319V102.983C81.1574 102.487 81.4614 102.127 82.0694 101.903C82.1414 101.871 82.2614 101.823 82.4294 101.759C82.6054 101.695 82.7894 101.627 82.9814 101.555C83.1814 101.475 83.3734 101.403 83.5574 101.339C83.7414 101.267 83.8814 101.211 83.9774 101.171V100.499C83.9774 100.163 83.8734 99.8795 83.6654 99.6475C83.4654 99.4075 83.1974 99.2875 82.8614 99.2875C82.6934 99.2875 82.5374 99.3195 82.3934 99.3835C82.2494 99.4475 82.1214 99.5355 82.0094 99.6475C81.8974 99.7515 81.8094 99.8795 81.7454 100.031C81.6814 100.175 81.6494 100.331 81.6494 100.499H81.2534C81.2534 100.275 81.2934 100.067 81.3734 99.8755C81.4614 99.6755 81.5774 99.5035 81.7214 99.3595C81.8654 99.2155 82.0334 99.1035 82.2254 99.0235C82.4254 98.9355 82.6374 98.8915 82.8614 98.8915ZM83.9774 101.903V101.603C83.8574 101.651 83.7094 101.707 83.5334 101.771C83.3574 101.835 83.1814 101.903 83.0054 101.975C82.8294 102.039 82.6694 102.099 82.5254 102.155C82.3814 102.211 82.2774 102.251 82.2134 102.275C82.0614 102.331 81.9134 102.415 81.7694 102.527C81.6254 102.639 81.5534 102.791 81.5534 102.983V103.319C81.5534 103.487 81.5854 103.647 81.6494 103.799C81.7134 103.943 81.7974 104.071 81.9014 104.183C82.0134 104.287 82.1414 104.371 82.2854 104.435C82.4374 104.499 82.5974 104.531 82.7654 104.531C82.9334 104.531 83.0894 104.499 83.2334 104.435C83.3854 104.371 83.5134 104.287 83.6174 104.183C83.7294 104.071 83.8174 103.943 83.8814 103.799C83.9454 103.647 83.9774 103.487 83.9774 103.319V101.903ZM88.5855 98.8915V99.2875H88.1175C87.9495 99.2875 87.7935 99.3195 87.6495 99.3835C87.5055 99.4475 87.3775 99.5355 87.2655 99.6475C87.1535 99.7515 87.0655 99.8795 87.0015 100.031C86.9375 100.175 86.9055 100.331 86.9055 100.499V101.903V104.867H86.5095V101.903V100.499V99.3475H86.1135V98.9515H86.5095H86.9055V99.3475V99.4435C87.2095 99.0915 87.6015 98.9075 88.0815 98.8915H88.5855ZM91.6346 104.927C91.4106 104.927 91.1986 104.887 90.9986 104.807C90.8066 104.719 90.6386 104.603 90.4946 104.459C90.3506 104.315 90.2346 104.147 90.1466 103.955C90.0666 103.755 90.0266 103.543 90.0266 103.319V100.499C90.0266 100.275 90.0666 100.067 90.1466 99.8755C90.2346 99.6755 90.3506 99.5035 90.4946 99.3595C90.6386 99.2155 90.8066 99.1035 90.9986 99.0235C91.1986 98.9355 91.4106 98.8915 91.6346 98.8915C91.8586 98.8915 92.0666 98.9355 92.2586 99.0235C92.4586 99.1035 92.6306 99.2155 92.7746 99.3595C92.9186 99.5035 93.0306 99.6755 93.1106 99.8755C93.1986 100.067 93.2426 100.275 93.2426 100.499V103.319C93.2426 103.543 93.1986 103.755 93.1106 103.955C93.0306 104.147 92.9186 104.315 92.7746 104.459C92.6306 104.603 92.4586 104.719 92.2586 104.807C92.0666 104.887 91.8586 104.927 91.6346 104.927ZM91.6346 99.2875C91.4666 99.2875 91.3066 99.3195 91.1546 99.3835C91.0106 99.4475 90.8826 99.5355 90.7706 99.6475C90.6666 99.7515 90.5826 99.8795 90.5186 100.031C90.4546 100.175 90.4226 100.331 90.4226 100.499V103.319C90.4226 103.487 90.4546 103.647 90.5186 103.799C90.5826 103.943 90.6666 104.071 90.7706 104.183C90.8826 104.287 91.0106 104.371 91.1546 104.435C91.3066 104.499 91.4666 104.531 91.6346 104.531C91.8026 104.531 91.9586 104.499 92.1026 104.435C92.2546 104.371 92.3826 104.287 92.4866 104.183C92.5986 104.071 92.6866 103.943 92.7506 103.799C92.8146 103.647 92.8466 103.487 92.8466 103.319V100.499C92.8466 100.331 92.8146 100.175 92.7506 100.031C92.6866 99.8795 92.5986 99.7515 92.4866 99.6475C92.3826 99.5355 92.2546 99.4475 92.1026 99.3835C91.9586 99.3195 91.8026 99.2875 91.6346 99.2875ZM99.4693 98.8915C99.6933 98.8915 99.9013 98.9355 100.093 99.0235C100.293 99.1035 100.465 99.2155 100.609 99.3595C100.753 99.5035 100.865 99.6755 100.945 99.8755C101.033 100.067 101.077 100.275 101.077 100.499V101.903V104.867H100.681V101.903V100.499C100.681 100.331 100.649 100.175 100.585 100.031C100.521 99.8795 100.433 99.7515 100.321 99.6475C100.217 99.5355 100.089 99.4475 99.9373 99.3835C99.7933 99.3195 99.6373 99.2875 99.4693 99.2875C99.3013 99.2875 99.1453 99.3195 99.0013 99.3835C98.8573 99.4475 98.7293 99.5355 98.6173 99.6475C98.5053 99.7515 98.4173 99.8795 98.3533 100.031C98.2893 100.175 98.2573 100.331 98.2573 100.499V101.903V104.867H97.8613V101.903V100.499C97.8613 100.331 97.8293 100.175 97.7653 100.031C97.7013 99.8795 97.6133 99.7515 97.5013 99.6475C97.3973 99.5355 97.2693 99.4475 97.1173 99.3835C96.9733 99.3195 96.8173 99.2875 96.6493 99.2875C96.4813 99.2875 96.3213 99.3195 96.1693 99.3835C96.0253 99.4475 95.8973 99.5355 95.7853 99.6475C95.6813 99.7515 95.5973 99.8795 95.5333 100.031C95.4693 100.175 95.4373 100.331 95.4373 100.499V101.903V104.867H95.0413V101.903V100.499V98.9515H95.4373V99.4435C95.5893 99.2675 95.7693 99.1315 95.9773 99.0355C96.1853 98.9395 96.4093 98.8915 96.6493 98.8915C96.9533 98.8915 97.2293 98.9675 97.4773 99.1195C97.7333 99.2715 97.9293 99.4715 98.0653 99.7195C98.2013 99.4715 98.3933 99.2715 98.6413 99.1195C98.8893 98.9675 99.1653 98.8915 99.4693 98.8915ZM104.584 98.8915C104.808 98.8915 105.012 98.9355 105.196 99.0235C105.38 99.1035 105.536 99.2155 105.664 99.3595C105.8 99.5035 105.904 99.6755 105.976 99.8755C106.056 100.067 106.096 100.275 106.096 100.499V101.903V103.319V104.867H105.7V104.375C105.548 104.543 105.368 104.679 105.16 104.783C104.952 104.879 104.728 104.927 104.488 104.927C104.264 104.927 104.052 104.887 103.852 104.807C103.66 104.719 103.492 104.603 103.348 104.459C103.204 104.315 103.088 104.147 103 103.955C102.92 103.755 102.88 103.543 102.88 103.319V102.983C102.88 102.487 103.184 102.127 103.792 101.903C103.864 101.871 103.984 101.823 104.152 101.759C104.328 101.695 104.512 101.627 104.704 101.555C104.904 101.475 105.096 101.403 105.28 101.339C105.464 101.267 105.604 101.211 105.7 101.171V100.499C105.7 100.163 105.596 99.8795 105.388 99.6475C105.188 99.4075 104.92 99.2875 104.584 99.2875C104.416 99.2875 104.26 99.3195 104.116 99.3835C103.972 99.4475 103.844 99.5355 103.732 99.6475C103.62 99.7515 103.532 99.8795 103.468 100.031C103.404 100.175 103.372 100.331 103.372 100.499H102.976C102.976 100.275 103.016 100.067 103.096 99.8755C103.184 99.6755 103.3 99.5035 103.444 99.3595C103.588 99.2155 103.756 99.1035 103.948 99.0235C104.148 98.9355 104.36 98.8915 104.584 98.8915ZM105.7 101.903V101.603C105.58 101.651 105.432 101.707 105.256 101.771C105.08 101.835 104.904 101.903 104.728 101.975C104.552 102.039 104.392 102.099 104.248 102.155C104.104 102.211 104 102.251 103.936 102.275C103.784 102.331 103.636 102.415 103.492 102.527C103.348 102.639 103.276 102.791 103.276 102.983V103.319C103.276 103.487 103.308 103.647 103.372 103.799C103.436 103.943 103.52 104.071 103.624 104.183C103.736 104.287 103.864 104.371 104.008 104.435C104.16 104.499 104.32 104.531 104.488 104.531C104.656 104.531 104.812 104.499 104.956 104.435C105.108 104.371 105.236 104.287 105.34 104.183C105.452 104.071 105.54 103.943 105.604 103.799C105.668 103.647 105.7 103.487 105.7 103.319V101.903ZM103.312 97.6075L105.616 96.8875L105.736 97.2715L103.432 97.9915L103.312 97.6075ZM108.291 101.903V103.319C108.291 103.487 108.319 103.647 108.375 103.799C108.431 103.943 108.507 104.071 108.603 104.183C108.699 104.287 108.811 104.371 108.939 104.435C109.067 104.499 109.203 104.531 109.347 104.531V104.927C109.147 104.927 108.959 104.887 108.783 104.807C108.607 104.719 108.451 104.603 108.315 104.459C108.187 104.315 108.083 104.147 108.003 103.955C107.931 103.755 107.895 103.543 107.895 103.319V101.903V99.3475V98.9515V97.2715H108.291V98.9515H109.587V99.3475H108.291V101.903ZM111.431 98.8555H111.839V99.2635V104.783H111.431V99.2635H111.035V98.8555H111.431ZM111.539 97.4875C111.451 97.4875 111.379 97.4595 111.323 97.4035C111.267 97.3475 111.239 97.2755 111.239 97.1875C111.239 97.0995 111.267 97.0275 111.323 96.9715C111.379 96.9155 111.451 96.8875 111.539 96.8875C111.619 96.8875 111.687 96.9155 111.743 96.9715C111.807 97.0275 111.839 97.0995 111.839 97.1875C111.839 97.2755 111.807 97.3475 111.743 97.4035C111.687 97.4595 111.619 97.4875 111.539 97.4875ZM115.36 104.531C115.528 104.531 115.684 104.499 115.828 104.435C115.98 104.371 116.108 104.287 116.212 104.183C116.324 104.071 116.412 103.943 116.476 103.799C116.54 103.647 116.572 103.487 116.572 103.319H116.968C116.968 103.543 116.924 103.755 116.836 103.955C116.756 104.147 116.644 104.315 116.5 104.459C116.356 104.603 116.184 104.719 115.984 104.807C115.792 104.887 115.584 104.927 115.36 104.927C115.136 104.927 114.924 104.887 114.724 104.807C114.532 104.719 114.364 104.603 114.22 104.459C114.076 104.315 113.96 104.147 113.872 103.955C113.792 103.755 113.752 103.543 113.752 103.319V100.499C113.752 100.275 113.792 100.067 113.872 99.8755C113.96 99.6755 114.076 99.5035 114.22 99.3595C114.364 99.2155 114.532 99.1035 114.724 99.0235C114.924 98.9355 115.136 98.8915 115.36 98.8915C115.584 98.8915 115.792 98.9355 115.984 99.0235C116.184 99.1035 116.356 99.2155 116.5 99.3595C116.644 99.5035 116.756 99.6755 116.836 99.8755C116.924 100.067 116.968 100.275 116.968 100.499H116.572C116.572 100.331 116.54 100.175 116.476 100.031C116.412 99.8795 116.324 99.7515 116.212 99.6475C116.108 99.5355 115.98 99.4475 115.828 99.3835C115.684 99.3195 115.528 99.2875 115.36 99.2875C115.192 99.2875 115.032 99.3195 114.88 99.3835C114.736 99.4475 114.608 99.5355 114.496 99.6475C114.392 99.7515 114.308 99.8795 114.244 100.031C114.18 100.175 114.148 100.331 114.148 100.499V103.319C114.148 103.487 114.18 103.647 114.244 103.799C114.308 103.943 114.392 104.071 114.496 104.183C114.608 104.287 114.736 104.371 114.88 104.435C115.032 104.499 115.192 104.531 115.36 104.531ZM120.471 98.8915C120.695 98.8915 120.899 98.9355 121.083 99.0235C121.267 99.1035 121.423 99.2155 121.551 99.3595C121.687 99.5035 121.791 99.6755 121.863 99.8755C121.943 100.067 121.983 100.275 121.983 100.499V101.903V103.319V104.867H121.587V104.375C121.435 104.543 121.255 104.679 121.047 104.783C120.839 104.879 120.615 104.927 120.375 104.927C120.151 104.927 119.939 104.887 119.739 104.807C119.547 104.719 119.379 104.603 119.235 104.459C119.091 104.315 118.975 104.147 118.887 103.955C118.807 103.755 118.767 103.543 118.767 103.319V102.983C118.767 102.487 119.071 102.127 119.679 101.903C119.751 101.871 119.871 101.823 120.039 101.759C120.215 101.695 120.399 101.627 120.591 101.555C120.791 101.475 120.983 101.403 121.167 101.339C121.351 101.267 121.491 101.211 121.587 101.171V100.499C121.587 100.163 121.483 99.8795 121.275 99.6475C121.075 99.4075 120.807 99.2875 120.471 99.2875C120.303 99.2875 120.147 99.3195 120.003 99.3835C119.859 99.4475 119.731 99.5355 119.619 99.6475C119.507 99.7515 119.419 99.8795 119.355 100.031C119.291 100.175 119.259 100.331 119.259 100.499H118.863C118.863 100.275 118.903 100.067 118.983 99.8755C119.071 99.6755 119.187 99.5035 119.331 99.3595C119.475 99.2155 119.643 99.1035 119.835 99.0235C120.035 98.9355 120.247 98.8915 120.471 98.8915ZM121.587 101.903V101.603C121.467 101.651 121.319 101.707 121.143 101.771C120.967 101.835 120.791 101.903 120.615 101.975C120.439 102.039 120.279 102.099 120.135 102.155C119.991 102.211 119.887 102.251 119.823 102.275C119.671 102.331 119.523 102.415 119.379 102.527C119.235 102.639 119.163 102.791 119.163 102.983V103.319C119.163 103.487 119.195 103.647 119.259 103.799C119.323 103.943 119.407 104.071 119.511 104.183C119.623 104.287 119.751 104.371 119.895 104.435C120.047 104.499 120.207 104.531 120.375 104.531C120.543 104.531 120.699 104.499 120.843 104.435C120.995 104.371 121.123 104.287 121.227 104.183C121.339 104.071 121.427 103.943 121.491 103.799C121.555 103.647 121.587 103.487 121.587 103.319V101.903ZM125.486 101.723C125.662 101.811 125.838 101.907 126.014 102.011C126.198 102.107 126.362 102.219 126.506 102.347C126.65 102.475 126.766 102.619 126.854 102.779C126.95 102.931 126.998 103.111 126.998 103.319C126.998 103.543 126.954 103.755 126.866 103.955C126.786 104.147 126.674 104.315 126.53 104.459C126.386 104.603 126.214 104.719 126.014 104.807C125.822 104.887 125.614 104.927 125.39 104.927C125.166 104.927 124.954 104.887 124.754 104.807C124.562 104.719 124.394 104.603 124.25 104.459C124.106 104.315 123.99 104.147 123.902 103.955C123.822 103.755 123.782 103.543 123.782 103.319H124.178C124.178 103.487 124.21 103.647 124.274 103.799C124.338 103.943 124.422 104.071 124.526 104.183C124.638 104.287 124.766 104.371 124.91 104.435C125.062 104.499 125.222 104.531 125.39 104.531C125.558 104.531 125.714 104.499 125.858 104.435C126.01 104.371 126.138 104.287 126.242 104.183C126.354 104.071 126.442 103.943 126.506 103.799C126.57 103.647 126.602 103.487 126.602 103.319C126.602 103.175 126.566 103.047 126.494 102.935C126.422 102.815 126.326 102.707 126.206 102.611C126.086 102.515 125.946 102.427 125.786 102.347C125.634 102.259 125.474 102.171 125.306 102.083C125.122 101.995 124.938 101.903 124.754 101.807C124.578 101.703 124.418 101.591 124.274 101.471C124.13 101.343 124.01 101.203 123.914 101.051C123.826 100.891 123.782 100.707 123.782 100.499C123.782 100.275 123.822 100.067 123.902 99.8755C123.99 99.6755 124.106 99.5035 124.25 99.3595C124.394 99.2155 124.562 99.1035 124.754 99.0235C124.954 98.9355 125.166 98.8915 125.39 98.8915C125.614 98.8915 125.822 98.9355 126.014 99.0235C126.214 99.1035 126.386 99.2155 126.53 99.3595C126.674 99.5035 126.786 99.6755 126.866 99.8755C126.954 100.067 126.998 100.275 126.998 100.499H126.602C126.602 100.331 126.57 100.175 126.506 100.031C126.442 99.8795 126.354 99.7515 126.242 99.6475C126.138 99.5355 126.01 99.4475 125.858 99.3835C125.714 99.3195 125.558 99.2875 125.39 99.2875C125.222 99.2875 125.062 99.3195 124.91 99.3835C124.766 99.4475 124.638 99.5355 124.526 99.6475C124.422 99.7515 124.338 99.8795 124.274 100.031C124.21 100.175 124.178 100.331 124.178 100.499C124.178 100.643 124.214 100.775 124.286 100.895C124.358 101.007 124.454 101.111 124.574 101.207C124.702 101.303 124.842 101.395 124.994 101.483C125.154 101.563 125.318 101.643 125.486 101.723ZM72.3637 110.891C72.5877 110.891 72.7917 110.935 72.9757 111.023C73.1597 111.103 73.3157 111.215 73.4437 111.359C73.5797 111.503 73.6837 111.675 73.7557 111.875C73.8357 112.067 73.8757 112.275 73.8757 112.499V113.903V115.319V116.867H73.4797V116.375C73.3277 116.543 73.1477 116.679 72.9397 116.783C72.7317 116.879 72.5077 116.927 72.2677 116.927C72.0437 116.927 71.8317 116.887 71.6317 116.807C71.4397 116.719 71.2717 116.603 71.1277 116.459C70.9837 116.315 70.8677 116.147 70.7797 115.955C70.6997 115.755 70.6597 115.543 70.6597 115.319V114.983C70.6597 114.487 70.9637 114.127 71.5717 113.903C71.6437 113.871 71.7637 113.823 71.9317 113.759C72.1077 113.695 72.2917 113.627 72.4837 113.555C72.6837 113.475 72.8757 113.403 73.0597 113.339C73.2437 113.267 73.3837 113.211 73.4797 113.171V112.499C73.4797 112.163 73.3757 111.879 73.1677 111.647C72.9677 111.407 72.6997 111.287 72.3637 111.287C72.1957 111.287 72.0397 111.319 71.8957 111.383C71.7517 111.447 71.6237 111.535 71.5117 111.647C71.3997 111.751 71.3117 111.879 71.2477 112.031C71.1837 112.175 71.1517 112.331 71.1517 112.499H70.7557C70.7557 112.275 70.7957 112.067 70.8757 111.875C70.9637 111.675 71.0797 111.503 71.2237 111.359C71.3677 111.215 71.5357 111.103 71.7277 111.023C71.9277 110.935 72.1397 110.891 72.3637 110.891ZM73.4797 113.903V113.603C73.3597 113.651 73.2117 113.707 73.0357 113.771C72.8597 113.835 72.6837 113.903 72.5077 113.975C72.3317 114.039 72.1717 114.099 72.0277 114.155C71.8837 114.211 71.7797 114.251 71.7157 114.275C71.5637 114.331 71.4157 114.415 71.2717 114.527C71.1277 114.639 71.0557 114.791 71.0557 114.983V115.319C71.0557 115.487 71.0877 115.647 71.1517 115.799C71.2157 115.943 71.2997 116.071 71.4037 116.183C71.5157 116.287 71.6437 116.371 71.7877 116.435C71.9397 116.499 72.0997 116.531 72.2677 116.531C72.4357 116.531 72.5917 116.499 72.7357 116.435C72.8877 116.371 73.0157 116.287 73.1197 116.183C73.2317 116.071 73.3197 115.943 73.3837 115.799C73.4477 115.647 73.4797 115.487 73.4797 115.319V113.903ZM78.0878 110.891V111.287H77.6198C77.4518 111.287 77.2958 111.319 77.1518 111.383C77.0078 111.447 76.8798 111.535 76.7678 111.647C76.6558 111.751 76.5678 111.879 76.5038 112.031C76.4398 112.175 76.4078 112.331 76.4078 112.499V113.903V116.867H76.0118V113.903V112.499V111.347H75.6158V110.951H76.0118H76.4078V111.347V111.443C76.7118 111.091 77.1038 110.907 77.5838 110.891H78.0878ZM80.1593 113.903V115.319C80.1593 115.487 80.1873 115.647 80.2433 115.799C80.2993 115.943 80.3753 116.071 80.4713 116.183C80.5673 116.287 80.6793 116.371 80.8073 116.435C80.9353 116.499 81.0713 116.531 81.2153 116.531V116.927C81.0153 116.927 80.8273 116.887 80.6513 116.807C80.4753 116.719 80.3193 116.603 80.1833 116.459C80.0553 116.315 79.9513 116.147 79.8713 115.955C79.7993 115.755 79.7633 115.543 79.7633 115.319V113.903V111.347V110.951V109.271H80.1593V110.951H81.4553V111.347H80.1593V113.903ZM85.1484 113.579C85.0764 113.603 84.9564 113.651 84.7884 113.723C84.6204 113.787 84.4364 113.855 84.2364 113.927C84.0444 113.999 83.8564 114.071 83.6724 114.143C83.4884 114.215 83.3444 114.267 83.2404 114.299V115.319C83.2404 115.487 83.2724 115.647 83.3364 115.799C83.4004 115.943 83.4844 116.071 83.5884 116.183C83.7004 116.287 83.8284 116.371 83.9724 116.435C84.1244 116.499 84.2844 116.531 84.4524 116.531C84.6204 116.531 84.7764 116.499 84.9204 116.435C85.0724 116.371 85.2004 116.287 85.3044 116.183C85.4164 116.071 85.5044 115.943 85.5684 115.799C85.6324 115.647 85.6644 115.487 85.6644 115.319H86.0604C86.0604 115.543 86.0164 115.755 85.9284 115.955C85.8484 116.147 85.7364 116.315 85.5924 116.459C85.4484 116.603 85.2764 116.719 85.0764 116.807C84.8844 116.887 84.6764 116.927 84.4524 116.927C84.2284 116.927 84.0164 116.887 83.8164 116.807C83.6244 116.719 83.4564 116.603 83.3124 116.459C83.1684 116.315 83.0524 116.147 82.9644 115.955C82.8844 115.755 82.8444 115.543 82.8444 115.319V112.499C82.8444 112.275 82.8844 112.067 82.9644 111.875C83.0524 111.675 83.1684 111.503 83.3124 111.359C83.4564 111.215 83.6244 111.103 83.8164 111.023C84.0164 110.935 84.2284 110.891 84.4524 110.891C84.6764 110.891 84.8844 110.935 85.0764 111.023C85.2764 111.103 85.4484 111.215 85.5924 111.359C85.7364 111.503 85.8484 111.675 85.9284 111.875C86.0164 112.067 86.0604 112.271 86.0604 112.487V112.499C86.0604 112.995 85.7564 113.355 85.1484 113.579ZM84.4524 111.287C84.2844 111.287 84.1244 111.319 83.9724 111.383C83.8284 111.447 83.7004 111.535 83.5884 111.647C83.4844 111.751 83.4004 111.879 83.3364 112.031C83.2724 112.175 83.2404 112.331 83.2404 112.499V113.879C83.3604 113.831 83.5084 113.775 83.6844 113.711C83.8604 113.639 84.0364 113.571 84.2124 113.507C84.3884 113.443 84.5484 113.383 84.6924 113.327C84.8444 113.271 84.9524 113.231 85.0164 113.207C85.1604 113.151 85.3044 113.067 85.4484 112.955C85.5924 112.843 85.6644 112.687 85.6644 112.487C85.6644 112.319 85.6324 112.163 85.5684 112.019C85.5044 111.875 85.4164 111.751 85.3044 111.647C85.2004 111.535 85.0724 111.447 84.9204 111.383C84.7764 111.319 84.6204 111.287 84.4524 111.287ZM89.4459 113.723C89.6219 113.811 89.7979 113.907 89.9739 114.011C90.1579 114.107 90.3219 114.219 90.4659 114.347C90.6099 114.475 90.7259 114.619 90.8139 114.779C90.9099 114.931 90.9579 115.111 90.9579 115.319C90.9579 115.543 90.9139 115.755 90.8259 115.955C90.7459 116.147 90.6339 116.315 90.4899 116.459C90.3459 116.603 90.1739 116.719 89.9739 116.807C89.7819 116.887 89.5739 116.927 89.3499 116.927C89.1259 116.927 88.9139 116.887 88.7139 116.807C88.5219 116.719 88.3539 116.603 88.2099 116.459C88.0659 116.315 87.9499 116.147 87.8619 115.955C87.7819 115.755 87.7419 115.543 87.7419 115.319H88.1379C88.1379 115.487 88.1699 115.647 88.2339 115.799C88.2979 115.943 88.3819 116.071 88.4859 116.183C88.5979 116.287 88.7259 116.371 88.8699 116.435C89.0219 116.499 89.1819 116.531 89.3499 116.531C89.5179 116.531 89.6739 116.499 89.8179 116.435C89.9699 116.371 90.0979 116.287 90.2019 116.183C90.3139 116.071 90.4019 115.943 90.4659 115.799C90.5299 115.647 90.5619 115.487 90.5619 115.319C90.5619 115.175 90.5259 115.047 90.4539 114.935C90.3819 114.815 90.2859 114.707 90.1659 114.611C90.0459 114.515 89.9059 114.427 89.7459 114.347C89.5939 114.259 89.4339 114.171 89.2659 114.083C89.0819 113.995 88.8979 113.903 88.7139 113.807C88.5379 113.703 88.3779 113.591 88.2339 113.471C88.0899 113.343 87.9699 113.203 87.8739 113.051C87.7859 112.891 87.7419 112.707 87.7419 112.499C87.7419 112.275 87.7819 112.067 87.8619 111.875C87.9499 111.675 88.0659 111.503 88.2099 111.359C88.3539 111.215 88.5219 111.103 88.7139 111.023C88.9139 110.935 89.1259 110.891 89.3499 110.891C89.5739 110.891 89.7819 110.935 89.9739 111.023C90.1739 111.103 90.3459 111.215 90.4899 111.359C90.6339 111.503 90.7459 111.675 90.8259 111.875C90.9139 112.067 90.9579 112.275 90.9579 112.499H90.5619C90.5619 112.331 90.5299 112.175 90.4659 112.031C90.4019 111.879 90.3139 111.751 90.2019 111.647C90.0979 111.535 89.9699 111.447 89.8179 111.383C89.6739 111.319 89.5179 111.287 89.3499 111.287C89.1819 111.287 89.0219 111.319 88.8699 111.383C88.7259 111.447 88.5979 111.535 88.4859 111.647C88.3819 111.751 88.2979 111.879 88.2339 112.031C88.1699 112.175 88.1379 112.331 88.1379 112.499C88.1379 112.643 88.1739 112.775 88.2459 112.895C88.3179 113.007 88.4139 113.111 88.5339 113.207C88.6619 113.303 88.8019 113.395 88.9539 113.483C89.1139 113.563 89.2779 113.643 89.4459 113.723ZM94.402 110.891C94.626 110.891 94.83 110.935 95.014 111.023C95.198 111.103 95.354 111.215 95.482 111.359C95.618 111.503 95.722 111.675 95.794 111.875C95.874 112.067 95.914 112.275 95.914 112.499V113.903V115.319V116.867H95.518V116.375C95.366 116.543 95.186 116.679 94.978 116.783C94.77 116.879 94.546 116.927 94.306 116.927C94.082 116.927 93.87 116.887 93.67 116.807C93.478 116.719 93.31 116.603 93.166 116.459C93.022 116.315 92.906 116.147 92.818 115.955C92.738 115.755 92.698 115.543 92.698 115.319V114.983C92.698 114.487 93.002 114.127 93.61 113.903C93.682 113.871 93.802 113.823 93.97 113.759C94.146 113.695 94.33 113.627 94.522 113.555C94.722 113.475 94.914 113.403 95.098 113.339C95.282 113.267 95.422 113.211 95.518 113.171V112.499C95.518 112.163 95.414 111.879 95.206 111.647C95.006 111.407 94.738 111.287 94.402 111.287C94.234 111.287 94.078 111.319 93.934 111.383C93.79 111.447 93.662 111.535 93.55 111.647C93.438 111.751 93.35 111.879 93.286 112.031C93.222 112.175 93.19 112.331 93.19 112.499H92.794C92.794 112.275 92.834 112.067 92.914 111.875C93.002 111.675 93.118 111.503 93.262 111.359C93.406 111.215 93.574 111.103 93.766 111.023C93.966 110.935 94.178 110.891 94.402 110.891ZM95.518 113.903V113.603C95.398 113.651 95.25 113.707 95.074 113.771C94.898 113.835 94.722 113.903 94.546 113.975C94.37 114.039 94.21 114.099 94.066 114.155C93.922 114.211 93.818 114.251 93.754 114.275C93.602 114.331 93.454 114.415 93.31 114.527C93.166 114.639 93.094 114.791 93.094 114.983V115.319C93.094 115.487 93.126 115.647 93.19 115.799C93.254 115.943 93.338 116.071 93.442 116.183C93.554 116.287 93.682 116.371 93.826 116.435C93.978 116.499 94.138 116.531 94.306 116.531C94.474 116.531 94.63 116.499 94.774 116.435C94.926 116.371 95.054 116.287 95.158 116.183C95.27 116.071 95.358 115.943 95.422 115.799C95.486 115.647 95.518 115.487 95.518 115.319V113.903ZM99.3207 110.891C99.5447 110.891 99.7527 110.935 99.9447 111.023C100.145 111.103 100.317 111.215 100.461 111.359C100.605 111.503 100.717 111.675 100.797 111.875C100.885 112.067 100.929 112.275 100.929 112.499V113.903V116.867H100.533V113.903V112.499C100.533 112.331 100.501 112.175 100.437 112.031C100.373 111.879 100.285 111.751 100.173 111.647C100.069 111.535 99.9407 111.447 99.7887 111.383C99.6447 111.319 99.4887 111.287 99.3207 111.287C99.1527 111.287 98.9927 111.319 98.8407 111.383C98.6967 111.447 98.5687 111.535 98.4567 111.647C98.3527 111.751 98.2687 111.879 98.2047 112.031C98.1407 112.175 98.1087 112.331 98.1087 112.499V113.903V116.867H97.7127V113.903V112.499V110.951H98.1087V111.443C98.2607 111.267 98.4407 111.131 98.6487 111.035C98.8567 110.939 99.0807 110.891 99.3207 110.891ZM104.373 110.891C104.597 110.891 104.801 110.935 104.985 111.023C105.169 111.103 105.325 111.215 105.453 111.359C105.589 111.503 105.693 111.675 105.765 111.875C105.845 112.067 105.885 112.275 105.885 112.499V113.903V115.319V116.867H105.489V116.375C105.337 116.543 105.157 116.679 104.949 116.783C104.741 116.879 104.517 116.927 104.277 116.927C104.053 116.927 103.841 116.887 103.641 116.807C103.449 116.719 103.281 116.603 103.137 116.459C102.993 116.315 102.877 116.147 102.789 115.955C102.709 115.755 102.669 115.543 102.669 115.319V114.983C102.669 114.487 102.973 114.127 103.581 113.903C103.653 113.871 103.773 113.823 103.941 113.759C104.117 113.695 104.301 113.627 104.493 113.555C104.693 113.475 104.885 113.403 105.069 113.339C105.253 113.267 105.393 113.211 105.489 113.171V112.499C105.489 112.163 105.385 111.879 105.177 111.647C104.977 111.407 104.709 111.287 104.373 111.287C104.205 111.287 104.049 111.319 103.905 111.383C103.761 111.447 103.633 111.535 103.521 111.647C103.409 111.751 103.321 111.879 103.257 112.031C103.193 112.175 103.161 112.331 103.161 112.499H102.765C102.765 112.275 102.805 112.067 102.885 111.875C102.973 111.675 103.089 111.503 103.233 111.359C103.377 111.215 103.545 111.103 103.737 111.023C103.937 110.935 104.149 110.891 104.373 110.891ZM105.489 113.903V113.603C105.369 113.651 105.221 113.707 105.045 113.771C104.869 113.835 104.693 113.903 104.517 113.975C104.341 114.039 104.181 114.099 104.037 114.155C103.893 114.211 103.789 114.251 103.725 114.275C103.573 114.331 103.425 114.415 103.281 114.527C103.137 114.639 103.065 114.791 103.065 114.983V115.319C103.065 115.487 103.097 115.647 103.161 115.799C103.225 115.943 103.309 116.071 103.413 116.183C103.525 116.287 103.653 116.371 103.797 116.435C103.949 116.499 104.109 116.531 104.277 116.531C104.445 116.531 104.601 116.499 104.745 116.435C104.897 116.371 105.025 116.287 105.129 116.183C105.241 116.071 105.329 115.943 105.393 115.799C105.457 115.647 105.489 115.487 105.489 115.319V113.903ZM108.021 110.855H108.429V111.263V116.783H108.021V111.263H107.625V110.855H108.021ZM108.129 109.487C108.041 109.487 107.969 109.459 107.913 109.403C107.857 109.347 107.829 109.275 107.829 109.187C107.829 109.099 107.857 109.027 107.913 108.971C107.969 108.915 108.041 108.887 108.129 108.887C108.209 108.887 108.277 108.915 108.333 108.971C108.397 109.027 108.429 109.099 108.429 109.187C108.429 109.275 108.397 109.347 108.333 109.403C108.277 109.459 108.209 109.487 108.129 109.487ZM111.988 113.723C112.164 113.811 112.34 113.907 112.516 114.011C112.7 114.107 112.864 114.219 113.008 114.347C113.152 114.475 113.268 114.619 113.356 114.779C113.452 114.931 113.5 115.111 113.5 115.319C113.5 115.543 113.456 115.755 113.368 115.955C113.288 116.147 113.176 116.315 113.032 116.459C112.888 116.603 112.716 116.719 112.516 116.807C112.324 116.887 112.116 116.927 111.892 116.927C111.668 116.927 111.456 116.887 111.256 116.807C111.064 116.719 110.896 116.603 110.752 116.459C110.608 116.315 110.492 116.147 110.404 115.955C110.324 115.755 110.284 115.543 110.284 115.319H110.68C110.68 115.487 110.712 115.647 110.776 115.799C110.84 115.943 110.924 116.071 111.028 116.183C111.14 116.287 111.268 116.371 111.412 116.435C111.564 116.499 111.724 116.531 111.892 116.531C112.06 116.531 112.216 116.499 112.36 116.435C112.512 116.371 112.64 116.287 112.744 116.183C112.856 116.071 112.944 115.943 113.008 115.799C113.072 115.647 113.104 115.487 113.104 115.319C113.104 115.175 113.068 115.047 112.996 114.935C112.924 114.815 112.828 114.707 112.708 114.611C112.588 114.515 112.448 114.427 112.288 114.347C112.136 114.259 111.976 114.171 111.808 114.083C111.624 113.995 111.44 113.903 111.256 113.807C111.08 113.703 110.92 113.591 110.776 113.471C110.632 113.343 110.512 113.203 110.416 113.051C110.328 112.891 110.284 112.707 110.284 112.499C110.284 112.275 110.324 112.067 110.404 111.875C110.492 111.675 110.608 111.503 110.752 111.359C110.896 111.215 111.064 111.103 111.256 111.023C111.456 110.935 111.668 110.891 111.892 110.891C112.116 110.891 112.324 110.935 112.516 111.023C112.716 111.103 112.888 111.215 113.032 111.359C113.176 111.503 113.288 111.675 113.368 111.875C113.456 112.067 113.5 112.275 113.5 112.499H113.104C113.104 112.331 113.072 112.175 113.008 112.031C112.944 111.879 112.856 111.751 112.744 111.647C112.64 111.535 112.512 111.447 112.36 111.383C112.216 111.319 112.06 111.287 111.892 111.287C111.724 111.287 111.564 111.319 111.412 111.383C111.268 111.447 111.14 111.535 111.028 111.647C110.924 111.751 110.84 111.879 110.776 112.031C110.712 112.175 110.68 112.331 110.68 112.499C110.68 112.643 110.716 112.775 110.788 112.895C110.86 113.007 110.956 113.111 111.076 113.207C111.204 113.303 111.344 113.395 111.496 113.483C111.656 113.563 111.82 113.643 111.988 113.723Z" fill="#C87200"/>
<path d="M154.52 18.7766C153.293 14.6154 148.67 6.12947 139.998 5.47461C141.43 9.70395 146.338 18.2854 154.52 18.7766Z" fill="#E19F48"/>
<path d="M163.929 8.74894C162.906 13.1147 160.983 23.782 163.111 30.6581C163.535 31.364 163.944 32.0691 164.338 32.7735C170.883 21.1497 166.929 11.6822 163.929 8.74894Z" fill="#E19F48"/>
<path d="M183.973 66.2543C179.555 65.5994 173.635 73.6216 171.389 77.7145C171.125 78.8865 170.829 80.0464 170.503 81.1934C181.466 78.0828 184.314 69.8015 183.973 66.2543Z" fill="#E19F48"/>
<path d="M152.884 111.772C154.111 108.878 156.402 102.19 155.747 98.5883C153.225 99.3387 148.821 103.786 149.966 114.755C150.952 113.797 151.926 112.802 152.884 111.772Z" fill="#E19F48"/>
<path d="M160.656 117.62C155.093 115.328 146.829 118.371 143.898 120.076C143.009 120.776 142.117 121.446 141.225 122.084C152.352 124.704 159.224 120.144 160.656 117.62Z" fill="#E19F48"/>
<path d="M174.36 35.5575C171.721 37.4938 171.645 47.9727 171.714 52.3384C171.865 53.0876 172.001 53.8344 172.122 54.5789C181.311 46.5966 177.427 33.3074 174.36 35.5575Z" fill="#E19F48"/>
<path d="M172.906 64.2079C171.611 60.2514 167.61 51.1924 163.52 50.7013C163.179 54.3849 164.777 63.1437 172.794 67.8915C172.869 66.6731 172.907 65.445 172.906 64.2079Z" fill="#E19F48"/>
<path d="M141.225 113.118C134.516 116.884 133.004 124.07 133.14 127.003C134.459 126.343 135.797 125.602 137.144 124.783C140.425 121.509 141.232 115.642 141.225 113.118Z" fill="#E19F48"/>
<path d="M159.692 103.407C163.169 104.157 171.497 103.459 175.587 94.2907C172.928 94.2225 166.114 95.314 162.351 99.4069C161.5 100.775 160.612 102.109 159.692 103.407Z" fill="#E19F48"/>
<path d="M167.175 38.3876C165.37 35.9869 159.314 30.6581 152.475 30.6581C153.293 34.0648 158.044 40.7412 168.516 41.5598C168.101 40.5052 167.654 39.4477 167.175 38.3876Z" fill="#E19F48"/>
<path d="M168.428 86.9235C168.769 82.626 168.142 73.9081 164.542 71.7797C162.77 76.4866 160.411 86.8826 165.974 91.6304L166.389 92.0396C167.059 90.634 167.687 89.2009 168.269 87.7421L168.428 86.9235Z" fill="#E19F48"/>
<path d="M124.044 130.308C128.035 129.479 132.534 127.584 137.144 124.783M154.52 18.7766C153.293 14.6154 148.67 6.12947 139.998 5.47461C141.43 9.70395 146.338 18.2854 154.52 18.7766ZM154.52 18.7766C160.104 25.3493 164.249 31.9157 167.175 38.3876M167.201 38.4225C167.193 38.411 167.184 38.3993 167.175 38.3876M172.11 54.5895C172.114 54.586 172.118 54.5824 172.122 54.5789M152.884 111.772C154.111 108.878 156.402 102.19 155.747 98.5883C153.225 99.3387 148.821 103.786 149.966 114.755C150.952 113.797 151.926 112.802 152.884 111.772ZM152.884 111.772C147.889 117.146 142.443 121.563 137.144 124.783M152.884 111.772C158.109 106.15 162.839 99.4808 166.389 92.0396M137.144 124.783C140.425 121.509 141.232 115.642 141.225 113.118C134.516 116.884 133.004 124.07 133.14 127.003C134.459 126.343 135.797 125.602 137.144 124.783ZM172.122 54.5789C172.001 53.8344 171.865 53.0876 171.714 52.3384C171.645 47.9727 171.721 37.4938 174.36 35.5575C177.427 33.3074 181.311 46.5966 172.122 54.5789ZM172.122 54.5789C171.259 49.2855 169.654 43.8705 167.175 38.3876M172.122 54.5789C174.059 66.4462 172.271 77.7024 168.269 87.7421M167.175 38.3876C165.37 35.9869 159.314 30.6581 152.475 30.6581C153.293 34.0648 158.044 40.7412 168.516 41.5598C168.101 40.5052 167.654 39.4477 167.175 38.3876ZM168.269 87.7421L168.428 86.9235C168.769 82.626 168.142 73.9081 164.542 71.7797C162.77 76.4866 160.411 86.8826 165.974 91.6304L166.389 92.0396M168.269 87.7421C167.687 89.2009 167.059 90.634 166.389 92.0396M163.929 8.74894C162.906 13.1147 160.983 23.782 163.111 30.6581C163.535 31.364 163.944 32.0691 164.338 32.7735C170.883 21.1497 166.929 11.6822 163.929 8.74894ZM172.906 64.2079C171.611 60.2514 167.61 51.1924 163.52 50.7013C163.179 54.3849 164.777 63.1437 172.794 67.8915C172.869 66.6731 172.907 65.445 172.906 64.2079ZM171.389 77.7145C173.635 73.6216 179.555 65.5994 183.973 66.2543C184.314 69.8015 181.466 78.0828 170.503 81.1934C170.829 80.0464 171.125 78.8865 171.389 77.7145ZM159.692 103.407C163.169 104.157 171.497 103.459 175.587 94.2907C172.928 94.2225 166.114 95.314 162.351 99.4069C161.5 100.775 160.612 102.109 159.692 103.407ZM143.898 120.076C146.829 118.371 155.093 115.328 160.656 117.62C159.224 120.144 152.352 124.704 141.225 122.084C142.117 121.446 143.009 120.776 143.898 120.076Z" stroke="#E19F48" stroke-linejoin="round"/>
<path d="M30.48 18.7766C31.7073 14.6154 36.3298 6.12947 45.0022 5.47461C43.5704 9.70395 38.6615 18.2854 30.48 18.7766Z" fill="#E19F48"/>
<path d="M21.0713 8.74894C22.094 13.1147 24.0167 23.782 21.8895 30.6581C21.4652 31.364 21.0563 32.0691 20.6622 32.7735C14.1171 21.1497 18.0714 11.6822 21.0713 8.74894Z" fill="#E19F48"/>
<path d="M1.02669 66.2543C5.44469 65.5994 11.3649 73.6216 13.6106 77.7145C13.8748 78.8865 14.1709 80.0464 14.4971 81.1934C3.53394 78.0828 0.685791 69.8015 1.02669 66.2543Z" fill="#E19F48"/>
<path d="M32.1163 111.772C30.8891 108.878 28.5983 102.19 29.2528 98.5883C31.7754 99.3387 36.1794 103.786 35.034 114.755C34.0477 113.797 33.0737 112.802 32.1163 111.772Z" fill="#E19F48"/>
<path d="M24.3439 117.62C29.9073 115.328 38.1706 118.371 41.1023 120.076C41.9912 120.776 42.883 121.446 43.7749 122.084C32.6481 124.704 25.7757 120.144 24.3439 117.62Z" fill="#E19F48"/>
<path d="M10.6399 35.5575C13.279 37.4938 13.3545 47.9727 13.2863 52.3384C13.1352 53.0876 12.9991 53.8344 12.8776 54.5789C3.68911 46.5966 7.57323 33.3074 10.6399 35.5575Z" fill="#E19F48"/>
<path d="M12.0936 64.2079C13.389 60.2514 17.3897 51.1924 21.4804 50.7013C21.8213 54.3849 20.2234 63.1437 12.2055 67.8915C12.1311 66.6731 12.0932 65.445 12.0936 64.2079Z" fill="#E19F48"/>
<path d="M43.7749 113.118C50.4838 116.884 51.996 124.07 51.8596 127.003C50.5412 126.343 49.2033 125.602 47.8559 124.783C44.5755 121.509 43.7684 115.642 43.7749 113.118Z" fill="#E19F48"/>
<path d="M25.3084 103.407C21.8313 104.157 13.5034 103.459 9.41271 94.2907C12.0717 94.2225 18.8856 95.314 22.6491 99.4069C23.5 100.775 24.3882 102.109 25.3084 103.407Z" fill="#E19F48"/>
<path d="M17.8249 38.3876C19.6305 35.9869 25.6863 30.6581 32.5254 30.6581C31.7073 34.0648 26.9563 40.7412 16.484 41.5598C16.8989 40.5052 17.3455 39.4477 17.8249 38.3876Z" fill="#E19F48"/>
<path d="M16.5715 86.9235C16.2306 82.626 16.8579 73.9081 20.4577 71.7797C22.2304 76.4866 24.5894 86.8826 19.026 91.6304L18.6114 92.0396C17.941 90.634 17.3126 89.2009 16.7311 87.7421L16.5715 86.9235Z" fill="#E19F48"/>
<path d="M60.9561 130.308C56.9646 129.479 52.4662 127.584 47.8559 124.783M30.48 18.7766C31.7073 14.6154 36.3298 6.12947 45.0022 5.47461C43.5704 9.70395 38.6615 18.2854 30.48 18.7766ZM30.48 18.7766C24.8962 25.3493 20.7512 31.9157 17.8249 38.3876M17.7987 38.4225C17.8073 38.411 17.8161 38.3993 17.8249 38.3876M12.8898 54.5895C12.8858 54.586 12.8817 54.5824 12.8776 54.5789M32.1163 111.772C30.8891 108.878 28.5983 102.19 29.2528 98.5883C31.7754 99.3387 36.1794 103.786 35.034 114.755C34.0477 113.797 33.0737 112.802 32.1163 111.772ZM32.1163 111.772C37.1109 117.146 42.5573 121.563 47.8559 124.783M32.1163 111.772C26.8914 106.15 22.1609 99.4808 18.6114 92.0396M47.8559 124.783C44.5755 121.509 43.7684 115.642 43.7749 113.118C50.4838 116.884 51.996 124.07 51.8596 127.003C50.5412 126.343 49.2033 125.602 47.8559 124.783ZM12.8776 54.5789C12.9991 53.8344 13.1352 53.0876 13.2863 52.3384C13.3545 47.9727 13.279 37.4938 10.6399 35.5575C7.57323 33.3074 3.68911 46.5966 12.8776 54.5789ZM12.8776 54.5789C13.7413 49.2855 15.3457 43.8705 17.8249 38.3876M12.8776 54.5789C10.9414 66.4462 12.7287 77.7024 16.7311 87.7421M17.8249 38.3876C19.6305 35.9869 25.6863 30.6581 32.5254 30.6581C31.7073 34.0648 26.9563 40.7412 16.484 41.5598C16.8989 40.5052 17.3455 39.4477 17.8249 38.3876ZM16.7311 87.7421L16.5715 86.9235C16.2306 82.626 16.8579 73.9081 20.4577 71.7797C22.2304 76.4866 24.5894 86.8826 19.026 91.6304L18.6114 92.0396M16.7311 87.7421C17.3126 89.2009 17.941 90.634 18.6114 92.0396M21.0713 8.74894C22.094 13.1147 24.0167 23.782 21.8895 30.6581C21.4652 31.364 21.0563 32.0691 20.6622 32.7735C14.1171 21.1497 18.0714 11.6822 21.0713 8.74894ZM12.0936 64.2079C13.389 60.2514 17.3897 51.1924 21.4804 50.7013C21.8213 54.3849 20.2234 63.1437 12.2055 67.8915C12.1311 66.6731 12.0932 65.445 12.0936 64.2079ZM13.6106 77.7145C11.3649 73.6216 5.44469 65.5994 1.02669 66.2543C0.685791 69.8015 3.53394 78.0828 14.4971 81.1934C14.1709 80.0464 13.8748 78.8865 13.6106 77.7145ZM25.3084 103.407C21.8313 104.157 13.5034 103.459 9.41271 94.2907C12.0717 94.2225 18.8856 95.314 22.6491 99.4069C23.5 100.775 24.3882 102.109 25.3084 103.407ZM41.1023 120.076C38.1706 118.371 29.9073 115.328 24.3439 117.62C25.7757 120.144 32.6481 124.704 43.7749 122.084C42.883 121.446 41.9912 120.776 41.1023 120.076Z" stroke="#E19F48" stroke-linejoin="round"/>
<path d="M70.7998 28.6714C73.8098 28.8744 78.0875 28.7095 82.4164 27.7494M98.712 11.8753C97.4212 11.2355 97.0985 9.5825 97.0985 8.83601C96.991 6.96977 97.1631 3.2373 98.712 3.2373C100.261 3.2373 99.3573 11.0222 98.712 14.9146C96.6338 22.5223 89.4573 26.1877 82.4164 27.7494M98.712 11.8753C100.325 12.6751 101.616 13.7949 102.261 14.5947C102.746 15.0746 104.359 17.634 105.166 20.0334C105.972 22.4329 106.94 25.9521 107.102 28.0316C107.532 33.6303 108.231 48.0909 107.586 61.1439H89.0314C87.5256 48.0269 86.2886 20.8012 93.3877 16.8342M98.712 11.8753C108.909 13.027 113.287 22.4862 114.201 27.0718L113.394 60.5041L107.263 64.983L88.2247 64.6631L82.4164 61.1439V27.7494M98.712 11.8753C94.8398 11.7938 86.1596 14.8546 82.4164 27.7494M105.327 27.2318C105.219 27.8716 104.585 29.3113 102.907 29.9511C100.809 30.7509 99.3573 30.2711 98.0666 31.2308C96.7759 32.1906 95.9691 33.7902 96.4532 34.5901C96.9372 35.3899 98.2279 35.3899 98.8733 34.4301C99.3896 33.6623 98.9809 30.8043 98.712 29.4712C98.4431 28.1915 97.2276 25.1202 96.4532 24.3524C96.1843 25.7921 95.5174 28.9274 95.0011 29.9511C94.3557 31.2308 93.549 35.8698 96.1305 36.1897C98.712 36.5096 100.164 37.7893 100.325 39.3889C100.454 40.6686 100.379 52.0793 100.325 57.6247C99.5187 58.2113 97.0985 59.0324 93.8717 57.6247L94.1944 41.1485V39.8688C94.786 39.229 96.4854 38.2692 98.5506 39.5489" stroke="#E2A645" stroke-linecap="round" stroke-linejoin="round"/>
</svg>
